<mxfile host="65bd71144e">
    <diagram name="Page-1" id="2c0d36ab-eaac-3732-788b-9136903baeff">
        <mxGraphModel dx="771" dy="348" grid="1" gridSize="10" guides="1" tooltips="1" connect="1" arrows="1" fold="1" page="1" pageScale="1.5" pageWidth="1169" pageHeight="827" background="none" math="0" shadow="0">
            <root>
                <mxCell id="0"/>
                <mxCell id="1" parent="0"/>
                <mxCell id="123" value="" style="fillColor=#AE4132;strokeColor=none;opacity=30;" parent="1" vertex="1">
                    <mxGeometry x="747" y="175.50000000000003" width="210" height="99.99999999999994" as="geometry"/>
                </mxCell>
                <mxCell id="2" value="Homepage/Login" style="rounded=1;fillColor=#23445D;gradientColor=none;strokeColor=none;fontColor=#FFFFFF;fontStyle=1;fontFamily=Tahoma;fontSize=14" parent="1" vertex="1">
                    <mxGeometry x="757" y="185.5" width="190" height="80" as="geometry"/>
                </mxCell>
                <mxCell id="9" value="" style="edgeStyle=elbowEdgeStyle;elbow=vertical;strokeWidth=2;rounded=0;entryX=0.5;entryY=0;entryDx=0;entryDy=0;" parent="1" source="2" target="10" edge="1">
                    <mxGeometry x="337" y="215.5" width="100" height="100" as="geometry">
                        <mxPoint x="337" y="315.5" as="sourcePoint"/>
                        <mxPoint x="1330" y="270" as="targetPoint"/>
                        <Array as="points">
                            <mxPoint x="935" y="280"/>
                        </Array>
                    </mxGeometry>
                </mxCell>
                <mxCell id="10" value="Exit/Logout" style="rounded=1;fillColor=#23445D;gradientColor=none;strokeColor=none;fontColor=#FFFFFF;fontStyle=1;fontFamily=Tahoma;fontSize=14" parent="1" vertex="1">
                    <mxGeometry x="907" y="318.25" width="240" height="114.5" as="geometry"/>
                </mxCell>
                <mxCell id="12" value="System page" style="rounded=1;fillColor=#23445D;gradientColor=none;strokeColor=none;fontColor=#FFFFFF;fontStyle=1;fontFamily=Tahoma;fontSize=14" parent="1" vertex="1">
                    <mxGeometry x="580" y="313.25" width="230" height="116.75" as="geometry"/>
                </mxCell>
                <mxCell id="rBEufeoj0yOJ44-tjE1A-140" style="edgeStyle=orthogonalEdgeStyle;rounded=0;orthogonalLoop=1;jettySize=auto;html=1;exitX=0.5;exitY=1;exitDx=0;exitDy=0;" parent="1" source="25" target="rBEufeoj0yOJ44-tjE1A-125" edge="1">
                    <mxGeometry relative="1" as="geometry"/>
                </mxCell>
                <mxCell id="rBEufeoj0yOJ44-tjE1A-142" style="edgeStyle=orthogonalEdgeStyle;rounded=0;orthogonalLoop=1;jettySize=auto;html=1;entryX=1;entryY=0.75;entryDx=0;entryDy=0;" parent="1" source="25" target="rBEufeoj0yOJ44-tjE1A-126" edge="1">
                    <mxGeometry relative="1" as="geometry"/>
                </mxCell>
                <mxCell id="124" style="edgeStyle=none;html=1;" edge="1" parent="1" source="25" target="rBEufeoj0yOJ44-tjE1A-132">
                    <mxGeometry relative="1" as="geometry"/>
                </mxCell>
                <mxCell id="25" value="Show Planet &#10;(list of moons)&#10;delete planet&#10;&#10;" style="rounded=1;fillColor=#23445D;gradientColor=none;strokeColor=none;fontColor=#FFFFFF;fontStyle=1;fontFamily=Tahoma;fontSize=14" parent="1" vertex="1">
                    <mxGeometry x="540" y="470" width="130" height="144.5" as="geometry"/>
                </mxCell>
                <mxCell id="29" value="New Planet" style="rounded=1;fillColor=#23445D;gradientColor=none;strokeColor=none;fontColor=#FFFFFF;fontStyle=1;fontFamily=Tahoma;fontSize=14" parent="1" vertex="1">
                    <mxGeometry x="740" y="490" width="130" height="60" as="geometry"/>
                </mxCell>
                <mxCell id="59" value="" style="edgeStyle=elbowEdgeStyle;elbow=vertical;strokeWidth=2;rounded=0" parent="1" source="2" target="12" edge="1">
                    <mxGeometry x="347" y="225.5" width="100" height="100" as="geometry">
                        <mxPoint x="861.9999999999999" y="275.5" as="sourcePoint"/>
                        <mxPoint x="1466.9999999999998" y="345.5" as="targetPoint"/>
                    </mxGeometry>
                </mxCell>
                <mxCell id="100" value="" style="edgeStyle=elbowEdgeStyle;elbow=vertical;strokeWidth=2;rounded=0;entryX=0.5;entryY=0;entryDx=0;entryDy=0;" parent="1" source="12" target="25" edge="1">
                    <mxGeometry x="-23" y="135.5" width="100" height="100" as="geometry">
                        <mxPoint x="-23" y="235.5" as="sourcePoint"/>
                        <mxPoint x="605" y="460" as="targetPoint"/>
                        <Array as="points">
                            <mxPoint x="650" y="440"/>
                            <mxPoint x="290" y="436"/>
                        </Array>
                    </mxGeometry>
                </mxCell>
                <mxCell id="101" value="" style="edgeStyle=elbowEdgeStyle;elbow=vertical;strokeWidth=2;rounded=0" parent="1" source="12" target="29" edge="1">
                    <mxGeometry x="-23" y="135.5" width="100" height="100" as="geometry">
                        <mxPoint x="-23" y="235.5" as="sourcePoint"/>
                        <mxPoint x="77" y="135.5" as="targetPoint"/>
                    </mxGeometry>
                </mxCell>
                <mxCell id="102" value="" style="edgeStyle=elbowEdgeStyle;elbow=vertical;strokeWidth=2;rounded=0;entryX=0.5;entryY=0;entryDx=0;entryDy=0;" parent="1" source="12" target="rBEufeoj0yOJ44-tjE1A-126" edge="1">
                    <mxGeometry x="-23" y="135.5" width="100" height="100" as="geometry">
                        <mxPoint x="-23" y="235.5" as="sourcePoint"/>
                        <mxPoint x="832" y="455.5" as="targetPoint"/>
                        <Array as="points">
                            <mxPoint x="480" y="420"/>
                        </Array>
                    </mxGeometry>
                </mxCell>
                <mxCell id="rBEufeoj0yOJ44-tjE1A-125" value="Edit Planet" style="rounded=1;fillColor=#23445D;gradientColor=none;strokeColor=none;fontColor=#FFFFFF;fontStyle=1;fontFamily=Tahoma;fontSize=14" parent="1" vertex="1">
                    <mxGeometry x="540" y="640" width="130" height="60" as="geometry"/>
                </mxCell>
                <mxCell id="rBEufeoj0yOJ44-tjE1A-139" style="edgeStyle=orthogonalEdgeStyle;rounded=0;orthogonalLoop=1;jettySize=auto;html=1;exitX=0.5;exitY=1;exitDx=0;exitDy=0;" parent="1" source="rBEufeoj0yOJ44-tjE1A-126" target="rBEufeoj0yOJ44-tjE1A-131" edge="1">
                    <mxGeometry relative="1" as="geometry"/>
                </mxCell>
                <mxCell id="rBEufeoj0yOJ44-tjE1A-126" value="Show Moon&#10;delete moon" style="rounded=1;fillColor=#23445D;gradientColor=none;strokeColor=none;fontColor=#FFFFFF;fontStyle=1;fontFamily=Tahoma;fontSize=14" parent="1" vertex="1">
                    <mxGeometry x="360" y="460" width="130" height="100" as="geometry"/>
                </mxCell>
                <mxCell id="rBEufeoj0yOJ44-tjE1A-131" value="Edit Moon" style="rounded=1;fillColor=#23445D;gradientColor=none;strokeColor=none;fontColor=#FFFFFF;fontStyle=1;fontFamily=Tahoma;fontSize=14" parent="1" vertex="1">
                    <mxGeometry x="360" y="600" width="130" height="60" as="geometry"/>
                </mxCell>
                <mxCell id="rBEufeoj0yOJ44-tjE1A-132" value="New Moon" style="rounded=1;fillColor=#23445D;gradientColor=none;strokeColor=none;fontColor=#FFFFFF;fontStyle=1;fontFamily=Tahoma;fontSize=14" parent="1" vertex="1">
                    <mxGeometry x="720" y="610" width="130" height="60" as="geometry"/>
                </mxCell>
            </root>
        </mxGraphModel>
    </diagram>
</mxfile>